<svg width="54" height="54" viewBox="0 0 54 54" fill="none" xmlns="http://www.w3.org/2000/svg">
<path d="M2 24.5C7.82925 18.3946 16.1081 18.1071 22 24.5M18.2377 8.25C18.2377 11.7018 15.4355 14.5 11.9788 14.5C8.52213 14.5 5.71992 11.7018 5.71992 8.25C5.71992 4.79822 8.52213 2 11.9788 2C15.4355 2 18.2377 4.79822 18.2377 8.25Z" stroke="white" stroke-width="3" stroke-linecap="round"/>
<path d="M32 52C37.8293 45.8946 46.1081 45.6071 52 52M48.2377 35.75C48.2377 39.2018 45.4355 42 41.9788 42C38.5221 42 35.7199 39.2018 35.7199 35.75C35.7199 32.2982 38.5221 29.5 41.9788 29.5C45.4355 29.5 48.2377 32.2982 48.2377 35.75Z" stroke="white" stroke-width="3" stroke-linecap="round"/>
<path d="M4.5 32C4.5 41.675 12.325 49.5 22 49.5L19.5 44.5" stroke="white" stroke-width="3" stroke-linecap="round" stroke-linejoin="round"/>
<path d="M34.5 4.5H49.5M34.5 12H49.5M34.5 19.5H43.25" stroke="white" stroke-width="3" stroke-linecap="round" stroke-linejoin="round"/>
</svg>
