<svg width="48" height="57" viewBox="0 0 48 57" fill="none" xmlns="http://www.w3.org/2000/svg">
<path d="M25.3235 47.4L25.3235 55.5" stroke="white" stroke-width="3" stroke-linecap="round" stroke-linejoin="round"/>
<path d="M20.0297 55.5H30.6179" stroke="white" stroke-width="3" stroke-linecap="round" stroke-linejoin="round"/>
<ellipse cx="18.5294" cy="18.9" rx="18.5294" ry="18.9" transform="matrix(-1 0 0 1 46.5 1.5)" stroke="white" stroke-width="3" stroke-linecap="round"/>
<path d="M14.7355 6.9C16.4675 7.00394 17.3624 7.86928 18.9006 9.52713C21.679 12.5216 24.4573 12.7714 26.3096 11.7733C29.088 10.2761 26.7532 7.85096 30.0141 6.53303C32.1394 5.67408 32.4358 3.3367 31.2529 1.5" stroke="white" stroke-width="3" stroke-linejoin="round"/>
<path d="M45.1765 23.1C41.2059 23.1 40.5014 26.4663 37.2353 25.8C30.6177 24.45 28.7426 25.9592 28.7426 29.1779C28.7426 32.3967 28.7426 32.3967 27.3663 34.8108C26.4711 36.381 26.1581 37.9512 27.9426 39.3" stroke="white" stroke-width="3" stroke-linejoin="round"/>
<path d="M9.44118 1.5C4.54051 6.35986 1.5 13.1321 1.5 20.6228C1.5 35.4114 13.3513 47.4 27.9706 47.4C35.185 47.4 41.7254 44.4804 46.5 39.7455" stroke="white" stroke-width="3" stroke-linecap="round"/>
</svg>
