<svg width="59" height="59" viewBox="0 0 59 59" fill="none" xmlns="http://www.w3.org/2000/svg">
<path d="M45.7501 26.8028C44.17 23.8586 41.0728 21.8022 37.4948 21.6439C33.5004 21.4672 29.4428 21.375 24.9744 21.375C20.506 21.375 16.4484 21.4672 12.4539 21.6439C7.70688 21.854 3.80599 25.4052 3.1719 29.9381C2.75806 32.8964 2.41675 35.928 2.41675 39.0154C2.41675 42.1028 2.75806 45.1345 3.1719 48.0928C3.80599 52.6257 7.70688 56.1769 12.4539 56.3869C14.3879 56.4725 16.6637 56.5383 18.6667 56.5833" stroke="white" stroke-width="3.2" stroke-linecap="round"/>
<path d="M13.25 21.375V14.6042C13.25 7.87319 18.7065 2.41666 25.4375 2.41666C32.1685 2.41666 37.625 7.87319 37.625 14.6042V21.375" stroke="white" stroke-width="3.2" stroke-linecap="round" stroke-linejoin="round"/>
<path d="M54.4291 37.9081L53.3081 39.0498V39.0498L54.4291 37.9081ZM55.4624 41.1651C56.0929 41.7842 57.106 41.7749 57.7251 41.1444C58.3442 40.5139 58.3349 39.5008 57.7044 38.8817L55.4624 41.1651ZM45.8119 37.9081L44.6909 36.7665L44.6909 36.7665L45.8119 37.9081ZM46.8452 45.3956C47.4758 46.0147 48.4888 46.0055 49.1079 45.375C49.727 44.7444 49.7177 43.7314 49.0872 43.1123L46.8452 45.3956ZM36.0726 53.6893C34.3154 55.4147 31.4546 55.4147 29.6974 53.6893L27.4554 55.9726C30.4574 58.9202 35.3126 58.9202 38.3146 55.9726L36.0726 53.6893ZM29.6974 53.6893C27.9565 51.9799 27.9565 49.2208 29.6974 47.5115L27.4554 45.2282C24.4372 48.1918 24.4372 53.009 27.4554 55.9726L29.6974 53.6893ZM29.6974 47.5115C31.4546 45.7861 34.3154 45.7861 36.0726 47.5115L38.3146 45.2282C35.3126 42.2806 30.4574 42.2806 27.4554 45.2282L29.6974 47.5115ZM36.0726 47.5115C37.8135 49.2208 37.8135 51.9799 36.0726 53.6893L38.3146 55.9726C41.3329 53.009 41.3329 48.1918 38.3146 45.2282L36.0726 47.5115ZM53.3081 39.0498L55.4624 41.1651L57.7044 38.8817L55.5501 36.7665L53.3081 39.0498ZM38.3145 47.5115L44.7786 41.1651L42.5367 38.8817L36.0727 45.2281L38.3145 47.5115ZM44.7786 41.1651L46.9329 39.0498L44.6909 36.7665L42.5366 38.8817L44.7786 41.1651ZM42.5366 41.1651L46.8452 45.3956L49.0872 43.1123L44.7786 38.8817L42.5366 41.1651ZM55.5501 36.7665C54.5666 35.8008 53.717 34.9618 52.9457 34.384C52.1363 33.7776 51.2331 33.3167 50.1205 33.3167V36.5167C50.2699 36.5167 50.5054 36.5543 51.0271 36.945C51.5868 37.3644 52.2605 38.0211 53.3081 39.0498L55.5501 36.7665ZM46.9329 39.0498C47.9805 38.0211 48.6542 37.3644 49.214 36.945C49.7356 36.5543 49.9711 36.5167 50.1205 36.5167V33.3167C49.008 33.3167 48.1047 33.7776 47.2953 34.384C46.524 34.9618 45.6744 35.8008 44.6909 36.7665L46.9329 39.0498Z" fill="white"/>
</svg>
