<svg width="50" height="50" viewBox="0 0 50 50" fill="none" xmlns="http://www.w3.org/2000/svg">
<path d="M25 25V37.5" stroke="#F1BA1B" stroke-width="1.5" stroke-linecap="round"/>
<path d="M25.0001 37.5C21.5133 37.5 18.4786 39.6084 16.9119 42.7187C16.1635 44.2042 17.2373 45.8333 18.6642 45.8333H31.336C32.7628 45.8333 33.8366 44.2042 33.0883 42.7187C31.5215 39.6084 28.4868 37.5 25.0001 37.5Z" stroke="#F1BA1B" stroke-width="1.5" stroke-linecap="round"/>
<path d="M10.4167 10.4167H8.30156C6.2463 10.4167 5.21868 10.4167 4.58376 11.1887C3.94885 11.9606 4.13504 12.825 4.50742 14.5538C5.2187 17.856 6.7615 20.7572 8.85196 22.9167" stroke="#F1BA1B" stroke-width="1.5" stroke-linecap="round"/>
<path d="M39.5835 10.4167H41.6987C43.7539 10.4167 44.7816 10.4167 45.4165 11.1887C46.0514 11.9606 45.8652 12.825 45.4928 14.5538C44.7815 17.856 43.2387 20.7572 41.1483 22.9167" stroke="#F1BA1B" stroke-width="1.5" stroke-linecap="round"/>
<path d="M25.0001 25.0001C33.0542 25.0001 39.5834 18.5065 39.5834 10.4964C39.5834 10.2863 39.5789 10.0773 39.57 9.86944C39.481 7.78771 39.4365 6.74684 38.0257 5.4568C36.6148 4.16675 35.0516 4.16675 31.9252 4.16675H18.075C14.9485 4.16675 13.3853 4.16675 11.9745 5.45679C10.5637 6.74684 10.5191 7.78771 10.4301 9.86944C10.4212 10.0773 10.4167 10.2863 10.4167 10.4964C10.4167 18.5065 16.9459 25.0001 25.0001 25.0001Z" stroke="#F1BA1B" stroke-width="1.5" stroke-linecap="round"/>
</svg>
