<svg width="50" height="50" viewBox="0 0 50 50" fill="none" xmlns="http://www.w3.org/2000/svg">
<path d="M7.32956 21.4704C6.5211 19.2329 6.11687 18.1142 6.28924 17.3973C6.47777 16.6131 7.03541 16.0018 7.74819 15.7979C8.39986 15.6115 9.4136 16.062 11.4411 16.9631C13.2344 17.7602 14.1311 18.1587 14.9736 18.1366C15.9012 18.1121 16.7935 17.7402 17.5033 17.082C18.148 16.4842 18.5804 15.5316 19.4453 13.6264L21.3512 9.42769C22.9433 5.92039 23.7394 4.16675 25 4.16675C26.2606 4.16675 27.0567 5.92039 28.6488 9.42769L30.5547 13.6264C31.4196 15.5316 31.852 16.4842 32.4967 17.082C33.2065 17.7402 34.0988 18.1121 35.0264 18.1366C35.8689 18.1587 36.7656 17.7602 38.5589 16.9631C40.5864 16.062 41.6001 15.6115 42.2518 15.7979C42.9646 16.0018 43.5222 16.6131 43.7108 17.3973C43.8831 18.1142 43.4789 19.2329 42.6704 21.4704L39.1954 31.0879C37.7088 35.2021 36.9655 37.2592 35.4101 38.4213C33.8546 39.5834 31.8446 39.5834 27.8245 39.5834H22.1755C18.1554 39.5834 16.1454 39.5834 14.5899 38.4213C13.0345 37.2592 12.2912 35.2021 10.8046 31.088L7.32956 21.4704Z" stroke="#F1BA1B" stroke-width="1.5"/>
<path d="M25 29.1667H25.0187" stroke="#F1BA1B" stroke-width="2" stroke-linecap="round" stroke-linejoin="round"/>
<path d="M14.5834 45.8335H35.4167" stroke="#F1BA1B" stroke-width="1.5" stroke-linecap="round"/>
</svg>
